<svg version="1.1" xmlns="http://www.w3.org/2000/svg" xmlns:xlink="http://www.w3.org/1999/xlink" width="128px" height="128px" viewBox="0,0,256,256"><g fill="none" fill-rule="nonzero" stroke="none" stroke-width="1" stroke-linecap="butt" stroke-linejoin="miter" stroke-miterlimit="10" stroke-dasharray="" stroke-dashoffset="0" font-family="none" font-weight="none" font-size="none" text-anchor="none" style="mix-blend-mode: normal"><g transform="scale(2,2)"><path d="M29,64l35,-60l35,60l-35,60z" fill-opacity="0" fill="#ffffff"></path><path d="M101.59,62.49l-35,-60c-0.54,-0.92 -1.52,-1.49 -2.59,-1.49c-1.07,0 -2.05,0.57 -2.59,1.49l-35,60c-0.83,1.43 -0.35,3.27 1.08,4.1c0.01,0.01 0.02,0.01 0.04,0.02l0.01,0.01l35,19.56c0.46,0.25 0.96,0.38 1.46,0.38c0.5,0 1.01,-0.13 1.46,-0.38l25.41,-14.2l-26.87,46.07l-18.69,-32.04c-0.83,-1.43 -2.67,-1.92 -4.1,-1.08c-1.43,0.83 -1.91,2.67 -1.08,4.1l21.28,36.48c0.54,0.92 1.52,1.49 2.59,1.49c1.07,0 2.05,-0.57 2.59,-1.49l35,-60c0.01,-0.02 0.01,-0.04 0.02,-0.05c0.5,-0.9 0.54,-2.02 -0.02,-2.97zM64,9.95l30.87,52.92l-27.87,15.58v-44.45c0,-1.66 -1.34,-3 -3,-3c-1.66,0 -3,1.34 -3,3v44.45l-27.87,-15.58z" fill="#ffffff"></path><g fill="#ffd376"><path d="M9.22,26.89l12,7.21c1.42,0.85 3.26,0.39 4.12,-1.03c0.85,-1.42 0.39,-3.26 -1.03,-4.12l-12,-7.21c-1.42,-0.85 -3.26,-0.39 -4.12,1.03c-0.85,1.42 -0.39,3.26 1.03,4.12z"></path><path d="M1,53c0,1.66 1.34,3 3,3h12c1.09,0 2.05,-0.58 2.57,-1.46c0.27,-0.45 0.43,-0.98 0.43,-1.54c0,-1.66 -1.34,-3 -3,-3h-12c-1.66,0 -3,1.34 -3,3z"></path><path d="M39.96,18.12c0.5,-0.26 0.89,-0.65 1.16,-1.1c0.52,-0.87 0.59,-1.99 0.08,-2.96l-5.63,-10.6c-0.78,-1.46 -2.59,-2.02 -4.06,-1.24c-1.46,0.78 -2.02,2.59 -1.24,4.06l5.63,10.6c0.78,1.46 2.59,2.02 4.06,1.24z"></path><g><path d="M118.78,26.99l-11.91,7.15c-1.13,0.68 -2.62,0.65 -3.6,-0.23c-1.6,-1.44 -1.27,-3.84 0.41,-4.85l11.91,-7.15c1.13,-0.68 2.62,-0.65 3.6,0.23c1.61,1.43 1.28,3.84 -0.41,4.85z"></path><path d="M126.85,53.95c-0.39,1.26 -1.65,2.05 -2.96,2.05h-11.89c-1.09,0 -2.05,-0.58 -2.57,-1.46c-0.31,-0.51 -0.47,-1.12 -0.42,-1.76c0.11,-1.6 1.57,-2.78 3.18,-2.78h11.81c1.96,0 3.49,1.89 2.85,3.95z"></path><path d="M88.24,18.32c-0.59,-0.26 -1.05,-0.69 -1.36,-1.2c-0.52,-0.87 -0.59,-1.99 -0.08,-2.96l5.54,-10.42c0.77,-1.45 2.55,-2.18 4.03,-1.47c1.55,0.74 2.16,2.62 1.36,4.12l-5.55,10.43c-0.75,1.42 -2.47,2.15 -3.94,1.5z"></path></g></g></g></g></svg>