<svg version="1.1" xmlns="http://www.w3.org/2000/svg" xmlns:xlink="http://www.w3.org/1999/xlink" width="128px" height="128px" viewBox="0,0,256,256"><g transform="translate(8,8) scale(0.9375,0.9375)"><g fill="#ffffff" fill-rule="nonzero" stroke="none" stroke-width="1" stroke-linecap="butt" stroke-linejoin="miter" stroke-miterlimit="10" stroke-dasharray="" stroke-dashoffset="0" font-family="none" font-weight="none" font-size="none" text-anchor="none" style="mix-blend-mode: normal"><path d="M16.04267,264.53333c-13.57295,0 -24.576,-11.00305 -24.576,-24.576v-223.91467c0,-13.57295 11.00305,-24.576 24.576,-24.576h223.91467c13.57295,0 24.576,11.00305 24.576,24.576v223.91467c0,13.57295 -11.00305,24.576 -24.576,24.576z" id="shape"></path></g><g fill="none" fill-rule="nonzero" stroke="none" stroke-width="1" stroke-linecap="butt" stroke-linejoin="miter" stroke-miterlimit="10" stroke-dasharray="" stroke-dashoffset="0" font-family="none" font-weight="none" font-size="none" text-anchor="none" style="mix-blend-mode: normal"><g transform="scale(2,2)"><path d="M111,101.2c0,7.4 -5.3,13.6 -12.6,14.8l-48,7.7c-1.1,0.2 -2.2,0.3 -3.3,0.3v0c-5.4,0 -10.5,-2.1 -14.3,-5.8l-26.4,-25.4c-3.2,-3.1 -3.3,-8.1 -0.2,-11.3c1.6,-1.7 3.7,-2.5 5.8,-2.5c2,0 4,0.7 5.6,2.2l22.8,22c3,2.9 7.4,3.6 11.1,1.9l30.7,-14c3,-1.3 4.8,-4.3 4.7,-7.6v0c-0.2,-4.3 -3.7,-7.6 -8,-7.6h-20.5c-4.3,0 -8,-3.2 -8.3,-7.5c-0.3,-4.7 3.4,-8.5 8,-8.5h24.7c2.5,0 5.1,0.5 7.4,1.4l6.4,2.6h14.5v-4h13v56c0,1.7 -1.3,3 -3,3h-7c-1.7,0 -3,-1.3 -3,-3v-14.7z" fill="#ffffff"></path><path d="M35.8,79.7c-2.1,0 -4.2,0.8 -5.8,2.4c-3.1,3.2 -3,8.2 0.2,11.3l12.7,12.3c1.5,1.4 3.5,2.2 5.6,2.2l16,-3.6l-12.8,-12.3l-10.3,-10c-1.6,-1.5 -3.6,-2.3 -5.6,-2.3z" fill="#ffffff"></path><path d="M117.5,57c-5.2,0 -9.5,4.3 -9.5,9.5v34.7c0,5.9 -4.2,10.9 -10.1,11.8l-48,7.7c-0.9,0.3 -1.9,0.3 -2.8,0.3c-4.6,0 -9,-1.8 -12.3,-5l-26.3,-25.4c-2,-1.9 -2,-5.1 -0.1,-7.1c1,-1 2.2,-1.5 3.6,-1.5c1.3,0 2.5,0.5 3.5,1.4l12.7,12.2v0v0l10.1,9.8c3.9,3.7 9.5,4.7 14.4,2.5l30.7,-14c4.1,-1.9 6.6,-6 6.4,-10.4c-0.2,-5.9 -5.1,-10.5 -11,-10.5h-20.5c-2.8,0 -5.1,-2 -5.3,-4.7c-0.1,-1.4 0.4,-2.7 1.3,-3.8c1,-1 2.3,-1.6 3.6,-1.6h24.7c2.2,0 4.3,0.4 6.3,1.2l6.4,2.6c1.5,0.6 3.3,-0.1 3.9,-1.7c0.6,-1.5 -0.1,-3.3 -1.7,-3.9l-6.4,-2.6c-2.7,-1.1 -5.6,-1.6 -8.5,-1.6h-24.6c-3,0 -6,1.3 -8,3.5c-2.1,2.2 -3.1,5.2 -2.9,8.2c0.3,5.9 5.2,10.4 11.2,10.4h20.6c2.7,0 4.8,2.1 5,4.8c0.1,2 -1.1,3.9 -2.9,4.7l-19.3,8.8l-7.8,-7.4l-10.3,-10c-2.1,-2 -4.8,-3.1 -7.6,-3.1c-3,0 -5.8,1.2 -7.9,3.4c-1.3,1.3 -2.1,2.8 -2.6,4.4l-5.6,-5.5c-2.1,-2 -4.8,-3.1 -7.6,-3.1c-3,0 -5.8,1.2 -7.9,3.4c-4.5,4.3 -4.4,11.3 0,15.5l26.3,25.5c4.4,4.3 10.3,6.7 16.4,6.7c1.3,0 2.5,-0.1 3.8,-0.3l48,-7.7c8.8,-1.4 15.1,-8.9 15.1,-17.8v-34.8c0,-1.9 1.6,-3.5 3.5,-3.5c1.9,0 3.5,1.6 3.5,3.5v22.5c0,1.7 1.3,3 3,3c1.7,0 3,-1.3 3,-3v-22.5c0,-5.2 -4.3,-9.5 -9.5,-9.5zM32.3,91.3c-2,-1.9 -2,-5.1 -0.1,-7.1c1,-1 2.2,-1.5 3.6,-1.5c1.3,0 2.5,0.5 3.5,1.4l10.4,10l6.1,5.8l-5.5,2.5c-2.6,1.2 -5.7,0.7 -7.8,-1.3l-10.2,-9.8z" fill="#444b54"></path><path d="M124,122c-1.7,0 -3,-1.3 -3,-3v-10c0,-1.7 1.3,-3 3,-3c1.7,0 3,1.3 3,3v10c0,1.7 -1.3,3 -3,3z" fill="#444b54"></path><path d="M23.2,30.2l5.3,14.6c1.8,4.9 15.9,4.3 31.4,-1.3c15.5,-5.6 26.7,-14.3 24.9,-19.2l-5.3,-14.6z" fill="#acb8e1"></path><path d="M60.7,16.5l8.4,23c10.5,-5.2 17.1,-11.4 15.7,-15.3l-5.3,-14.5c-1.4,-3.9 -7.4,4.1 -18.8,6.8z" fill="#4448d6"></path><path d="M48,31c2.2,-0.6 4.4,-1.3 6.6,-2.1c15.6,-5.7 26.7,-14.3 24.9,-19.2c-1.8,-4.9 -15.8,-4.3 -31.4,1.3c-15.6,5.6 -26.7,14.3 -24.9,19.2c1,2.6 5.5,3.7 11.8,3.2z" fill="#ffffff"></path><path d="M37.3,50.7c-8.1,0 -10.9,-2.8 -11.9,-5.3c-0.6,-1.6 0.2,-3.3 1.8,-3.8c1.6,-0.6 3.3,0.2 3.8,1.8c0.1,0.3 2.1,1.8 8.8,1.3c1.7,-0.1 3.1,1.1 3.2,2.8c0.1,1.7 -1.1,3.1 -2.8,3.2c-0.9,-0.1 -1.9,0 -2.9,0z" fill="#444b54"></path><path d="M32.2,36.6c-8.1,0 -10.9,-2.8 -11.9,-5.3c-1,-2.6 -0.5,-7 6.9,-12.7c4.9,-3.8 12,-7.5 19.8,-10.3c1.6,-0.6 3.3,0.2 3.8,1.8c0.6,1.6 -0.2,3.3 -1.8,3.8c-7.2,2.6 -13.7,6 -18.2,9.4c-4.6,3.5 -5.1,5.6 -5,5.9c0.1,0.3 2.1,1.8 8.8,1.3c1.7,-0.1 3.1,1.1 3.2,2.8c0.1,1.7 -1.1,3.1 -2.8,3.2c-0.9,0 -1.9,0.1 -2.8,0.1z" fill="#444b54"></path><path d="M87.5,22.8l-5.1,-14.1v0c-0.9,-2.4 -3.6,-5.3 -11.8,-5.3v0c-1.7,0 -3,1.3 -3,3c0,1.7 1.3,3 3,3c4.7,0 6.1,1.1 6.2,1.4c0.5,1.4 -5.7,9 -23.1,15.3c-0.9,0.3 -1.7,0.6 -2.6,0.9c-1.6,0.5 -2.4,2.2 -1.9,3.8c0.4,1.3 1.6,2.1 2.8,2.1c0.3,0 0.6,0 0.9,-0.2c0.9,-0.3 1.8,-0.6 2.7,-0.9c9.5,-3.4 18.8,-8.5 23.7,-13.8l2.5,7c0.1,0.3 -0.4,2.4 -5,5.9c-4.5,3.4 -10.9,6.8 -18.2,9.4c-2.1,0.8 -4.3,1.5 -6.4,2.1c-1.6,0.4 -2.5,2.1 -2.1,3.7c0.4,1.3 1.6,2.2 2.9,2.2c0.3,0 0.5,0 0.8,-0.1c2.3,-0.6 4.6,-1.4 6.9,-2.2c7.8,-2.8 14.8,-6.5 19.8,-10.3c7.5,-6 7.9,-10.3 7,-12.9z" fill="#444b54"></path></g></g></g></svg>