<svg version="1.1" xmlns="http://www.w3.org/2000/svg" xmlns:xlink="http://www.w3.org/1999/xlink" width="64px" height="64px" viewBox="0,0,256,256"><g fill="none" fill-rule="nonzero" stroke="none" stroke-width="1" stroke-linecap="butt" stroke-linejoin="miter" stroke-miterlimit="10" stroke-dasharray="" stroke-dashoffset="0" font-family="none" font-weight="none" font-size="none" text-anchor="none" style="mix-blend-mode: normal"><g transform="scale(4,4)"><rect x="12" y="0" width="40" height="64" rx="8" ry="0" fill-opacity="0" fill="#acb8e1"></rect><path d="M49,9v45c0,3.31371 -2.68629,6 -6,6h-22c-3.31371,0 -6,-2.68629 -6,-6v-45c0,-3.31371 2.68629,-6 6,-6h3.29c0.42624,0.00317 0.80361,0.27616 0.94,0.68l0.31,0.95c0.27168,0.81858 1.03752,1.37078 1.9,1.37h9.12c0.86248,0.00078 1.62832,-0.55142 1.9,-1.37l0.31,-0.94c0.1341,-0.41126 0.51743,-0.68968 0.95,-0.69h3.28c3.31371,0 6,2.68629 6,6z" fill-opacity="0" fill="#ffffff"></path><path d="M34,30h-4c-0.55228,0 -1,-0.44772 -1,-1v-8h-3c-0.37877,0 -0.72504,-0.214 -0.89443,-0.55279c-0.16939,-0.33878 -0.13284,-0.7442 0.09443,-1.04721l6,-8c0.18885,-0.25181 0.48524,-0.4 0.8,-0.4c0.31476,0 0.61115,0.14819 0.8,0.4l6,8c0.22726,0.30302 0.26382,0.70843 0.09443,1.04721c-0.16939,0.33878 -0.51566,0.55279 -0.89443,0.55279h-3v8c0,0.55228 -0.44772,1 -1,1z" fill="#acb8e1"></path><circle cx="32" cy="38" r="13" fill="#ea9706"></circle><circle cx="32" cy="38" r="11" fill="#ffac00"></circle><path d="M33.5,39h-4.5c-0.55228,0 -1,-0.44772 -1,-1v-5c0,-0.55228 0.44772,-1 1,-1h4.5c1.933,0 3.5,1.567 3.5,3.5c0,1.933 -1.567,3.5 -3.5,3.5zM30,37h3.5c0.82843,0 1.5,-0.67157 1.5,-1.5c0,-0.82843 -0.67157,-1.5 -1.5,-1.5h-3.5z" fill="#ffac00"></path><path d="M34.5,44h-5.5c-0.55228,0 -1,-0.44772 -1,-1v-5c0,-0.55228 0.44772,-1 1,-1h5.5c1.933,0 3.5,1.567 3.5,3.5c0,1.933 -1.567,3.5 -3.5,3.5zM30,42h4.5c0.82843,0 1.5,-0.67157 1.5,-1.5c0,-0.82843 -0.67157,-1.5 -1.5,-1.5h-4.5z" fill="#ffac00"></path><path d="M30,34c-0.55228,0 -1,-0.44772 -1,-1v-2c0,-0.55228 0.44772,-1 1,-1c0.55228,0 1,0.44772 1,1v2c0,0.55228 -0.44772,1 -1,1z" fill="#ffac00"></path><path d="M34,34c-0.55228,0 -1,-0.44772 -1,-1v-2c0,-0.55228 0.44772,-1 1,-1c0.55228,0 1,0.44772 1,1v2c0,0.55228 -0.44772,1 -1,1z" fill="#ffac00"></path><path d="M34,46c-0.55228,0 -1,-0.44772 -1,-1v-2c0,-0.55228 0.44772,-1 1,-1c0.55228,0 1,0.44772 1,1v2c0,0.55228 -0.44772,1 -1,1z" fill="#ffac00"></path><path d="M30,46c-0.55228,0 -1,-0.44772 -1,-1v-2c0,-0.55228 0.44772,-1 1,-1c0.55228,0 1,0.44772 1,1v2c0,0.55228 -0.44772,1 -1,1z" fill="#ffac00"></path><path d="M29,34h-1c-0.55228,0 -1,-0.44772 -1,-1c0,-0.55228 0.44772,-1 1,-1h1c0.55228,0 1,0.44772 1,1c0,0.55228 -0.44772,1 -1,1z" fill="#ffac00"></path><path d="M29,44h-1c-0.55228,0 -1,-0.44772 -1,-1c0,-0.55228 0.44772,-1 1,-1h1c0.55228,0 1,0.44772 1,1c0,0.55228 -0.44772,1 -1,1z" fill="#ffac00"></path><path d="M42,57h-20c-0.55228,0 -1,-0.44772 -1,-1c0,-0.55228 0.44772,-1 1,-1h20c0.55228,0 1,0.44772 1,1c0,0.55228 -0.44772,1 -1,1z" fill-opacity="0" fill="#ffffff"></path><circle cx="45" cy="8" r="1" fill-opacity="0" fill="#ffffff"></circle><circle cx="41" cy="8" r="1" fill-opacity="0" fill="#ffffff"></circle></g></g></svg>